<?xml version="1.0" encoding="utf-8"?>
<!-- Generator: Adobe Illustrator 19.0.0, SVG Export Plug-In . SVG Version: 6.00 Build 0)  -->
<svg version="1.1" id="Calque_2" xmlns="http://www.w3.org/2000/svg" xmlns:xlink="http://www.w3.org/1999/xlink" x="0px" y="0px"
	 width="78.3px" height="78.3px" viewBox="0 0 78.3 78.3" style="enable-background:new 0 0 78.3 78.3;" xml:space="preserve">
<style type="text/css">
	.st0{fill:#878E91;}
	.st1{fill:#1A8A7E;}
	.st2{opacity:0.55;}
	.st3{filter:url(#Adobe_OpacityMaskFilter);}
	.st4{mask:url(#XMLID_29_);}
	.st5{fill:#231F20;}
	.st6{fill:#FFFFFF;}
	.st7{opacity:0.2;}
	.st8{filter:url(#Adobe_OpacityMaskFilter_1_);}
	.st9{mask:url(#XMLID_30_);fill:#FFFFFF;}
</style>
<path id="XMLID_19_" class="st0" d="M45.8,47.7c0,0,9.2-18-5.2-27c-13.1-8.3-34.1,1.4-37.5,3.1C1.1,28.5,0,33.7,0,39.2
	c0,13.8,7.2,26,18,32.9C34.3,66.8,45.8,47.7,45.8,47.7z"/>
<path id="XMLID_18_" class="st1" d="M39.2,0C23.2,0,9.4,9.6,3.3,23.4c2.9-2.7,14.8-13,27-13c14,0,21.3,7.7,23.7,12
	c2.3,4.3,10,21-5.3,38C41.8,68,33.9,73.1,27.3,76.5c3.7,1.2,7.7,1.8,11.9,1.8c21.6,0,39.2-17.5,39.2-39.2S60.8,0,39.2,0z"/>
<g id="XMLID_16_" class="st2">
	<defs>
		<filter id="Adobe_OpacityMaskFilter" filterUnits="userSpaceOnUse" x="1.8" y="12.5" width="70" height="64.5">
			<feFlood  style="flood-color:white;flood-opacity:1" result="back"/>
			<feBlend  in="SourceGraphic" in2="back" mode="normal"/>
		</filter>
	</defs>
	<mask maskUnits="userSpaceOnUse" x="1.8" y="12.5" width="70" height="64.5" id="XMLID_29_">
		<g id="XMLID_67_" class="st3">
			
				<image style="overflow:visible;" width="309" height="286" id="XMLID_75_" xlink:href="D9B212A0.jpg"  transform="matrix(0.24 0 0 0.24 -0.2011 10.5238)">
			</image>
		</g>
	</mask>
	<g id="XMLID_76_" class="st4">
		<g id="XMLID_79_">
			<path id="XMLID_80_" class="st5" d="M53.8,56.7c6.8-9.6,6.8-16.7,5.8-20.9l12.2-9.1l-15.8-1.5c0,0-2.3-9.8-16.8-12.3
				s-31,7.8-31,7.8l-5,2.7c-0.6,1.3-1.1,2.7-1.5,4c4.5-2.9,17.9-10.5,33.4-4.3l1.1,2.6l-9.7,1.8l-5.8-0.5l9.6,30.8L51,42.2l-1.1,9.7
				L21.7,74.2c2.3,1.2,4.8,2.1,7.3,2.8C35.7,73.5,46.7,66.7,53.8,56.7z"/>
		</g>
	</g>
</g>
<path id="XMLID_4_" class="st6" d="M69.3,25l-14.4-0.8c-0.3-0.7-0.7-1.4-0.9-1.8c-2.3-4.3-9.7-12-23.7-12c-12.2,0-24.1,10.4-27,13
	c-0.1,0.1-0.1,0.3-0.2,0.4c3.4-1.7,24.4-11.3,37.5-3.1c1.4,0.9,2.6,1.9,3.6,2.9l-21.9-1.2l9.3,31L48.1,41c-0.8,3.9-2.3,6.7-2.3,6.7
	S34.3,66.8,18,72.1c2.9,1.8,6,3.3,9.3,4.4c6.6-3.4,14.6-8.5,21.4-16.2c8.7-9.7,10-19.3,9-26.6L69.3,25z"/>
<g id="XMLID_36_">
	<g id="XMLID_49_" class="st7">
		<defs>
			<filter id="Adobe_OpacityMaskFilter_1_" filterUnits="userSpaceOnUse" x="2.7" y="0" width="72.7" height="29.3">
				<feFlood  style="flood-color:white;flood-opacity:1" result="back"/>
				<feBlend  in="SourceGraphic" in2="back" mode="normal"/>
			</filter>
		</defs>
		<mask maskUnits="userSpaceOnUse" x="2.7" y="0" width="72.7" height="29.3" id="XMLID_30_">
			<g id="XMLID_52_" class="st8">
				
					<image style="overflow:visible;" width="320" height="139" id="XMLID_53_" xlink:href="D9B212A7.jpg"  transform="matrix(0.24 0 0 0.24 0.6668 -2)">
				</image>
			</g>
		</mask>
		<path id="XMLID_57_" class="st9" d="M2.7,25c9.6,2.7,21.8,4.4,35,4.4c14.5,0,27.7-1.9,37.7-5.1C69.5,10,55.5,0,39.2,0
			C22.5,0,8.4,10.4,2.7,25z"/>
	</g>
</g>
</svg>
